HIERARCHY
ROOT root
{
	OFFSET	0	13.1	24.9
	CHANNELS 6  Xposition Yposition Zposition Xrotation Yrotation Zrotation
	JOINT spine_1
	{
		OFFSET	0	9.99999	0
		CHANNELS 3  Xrotation Yrotation Zrotation
		JOINT spine_2
		{
			OFFSET	0	112	-10
			CHANNELS 3  Xrotation Yrotation Zrotation
			JOINT spine_3
			{
				OFFSET	0	206.5	19.3
				CHANNELS 3  Xrotation Yrotation Zrotation
				JOINT spine_4
				{
					OFFSET	0	110.4	14.6
					CHANNELS 3  Xrotation Yrotation Zrotation
					JOINT neck_1
					{
						OFFSET	0	71.8	-50.3
						CHANNELS 3  Xrotation Yrotation Zrotation
						JOINT neck_2
						{
							OFFSET	0	86.2	-25.8
							CHANNELS 3  Xrotation Yrotation Zrotation
							JOINT head_ee
							{
								OFFSET	0	179.8	-8.7
								CHANNELS 3  Xrotation Yrotation Zrotation
								End Site
								{
									OFFSET	1	0	0
								}
							}
						}
					}
					JOINT left_clavicle
					{
						OFFSET	-43.2	22.4	-70.8
						CHANNELS 3  Xrotation Yrotation Zrotation
						JOINT left_shoulder
						{
							OFFSET	-93.9	-5.79999	48.7
							CHANNELS 3  Xrotation Yrotation Zrotation
							JOINT left_elbow
							{
								OFFSET	-291.4	-30.8	15.2
								CHANNELS 3  Xrotation Yrotation Zrotation
								JOINT left_lowarm_twist
								{
									OFFSET	-110.7	-3.89999	13.6
									CHANNELS 3  Xrotation Yrotation Zrotation
									JOINT left_hand
									{
										OFFSET	-110.7	-3.89999	13.6
										CHANNELS 3  Xrotation Yrotation Zrotation
										JOINT left_ee
										{
											OFFSET	-80.8	-5.10001	12.1
											CHANNELS 3  Xrotation Yrotation Zrotation
											End Site
											{
												OFFSET	1	0	0
											}
										}
									}
								}
							}
						}
					}
					JOINT right_clavicle
					{
						OFFSET	43.2	22.4	-70.8
						CHANNELS 3  Xrotation Yrotation Zrotation
						JOINT right_shoulder
						{
							OFFSET	93.9	-5.79999	48.7
							CHANNELS 3  Xrotation Yrotation Zrotation
							JOINT right_elbow
							{
								OFFSET	291.4	-30.8	15.2
								CHANNELS 3  Xrotation Yrotation Zrotation
								JOINT right_lowarm_twist
								{
									OFFSET	110.7	-3.89999	13.6
									CHANNELS 3  Xrotation Yrotation Zrotation
									JOINT right_hand
									{
										OFFSET	110.7	-3.89999	13.6
										CHANNELS 3  Xrotation Yrotation Zrotation
										JOINT right_ee
										{
											OFFSET	80.8	-5.10001	12.1
											CHANNELS 3  Xrotation Yrotation Zrotation
											End Site
											{
												OFFSET	1	0	0
											}
										}
									}
								}
							}
						}
					}
				}
			}
		}
	}
	JOINT left_hip
	{
		OFFSET	-82.8	-127.5	0.300001
		CHANNELS 3  Xrotation Yrotation Zrotation
		JOINT left_knee
		{
			OFFSET	-28.2	-396.7	2.2
			CHANNELS 3  Xrotation Yrotation Zrotation
			JOINT left_ankle
			{
				OFFSET	-11.7	-411.3	35.4
				CHANNELS 3  Xrotation Yrotation Zrotation
				JOINT left_toes
				{
					OFFSET	0	-60	-88.6
					CHANNELS 3  Xrotation Yrotation Zrotation
					JOINT left_foot_ee
					{
						OFFSET	-22.5	-16.5	-42.2
						CHANNELS 3  Xrotation Yrotation Zrotation
						End Site
						{
							OFFSET	1	0	0
						}
					}
				}
			}
		}
	}
	JOINT right_hip
	{
		OFFSET	82.8	-127.5	0.300001
		CHANNELS 3  Xrotation Yrotation Zrotation
		JOINT right_knee
		{
			OFFSET	28.2	-396.7	2.2
			CHANNELS 3  Xrotation Yrotation Zrotation
			JOINT right_ankle
			{
				OFFSET	11.7	-411.3	35.4
				CHANNELS 3  Xrotation Yrotation Zrotation
				JOINT right_toes
				{
					OFFSET	0	-60	-88.6
					CHANNELS 3  Xrotation Yrotation Zrotation
					JOINT right_foot_ee
					{
						OFFSET	22.5	-16.5	-42.2
						CHANNELS 3  Xrotation Yrotation Zrotation
						End Site
						{
							OFFSET	1	0	0
						}
					}
				}
			}
		}
	}
}
MOTION
Frames: 8
Frame Time: 0.02
2751.4 699.162 -1299.58 -8.41234 55.7309 1.50929 1.18976 0.341046 2.18541 1.1924 0.201326 2.20267 1.20068 -0.220108 2.20087 1.19394 0.130153 2.20801 -2.27752 20.5188 -0.848185 -1.43492 37.9239 1.6787 -0.0 0.0 -0.0 3.67248 13.0452 7.61651 15.4019 -19.9504 45.7085 4.24605 -64.5525 2.68252 -10.2614 -0.472438 1.22216 -1.91204 6.30467 -9.90267 -0.0 0.0 -0.0 13.0537 25.5339 -25.8554 -19.1606 -3.21862 -61.2499 0.227102 6.41892 -0.0127346 13.9931 -0.279186 1.76126 -1.75843 4.374 13.8285 0.0 0.0 0.0 -12.9581 4.63414 23.9969 2.64629 -0.117985 -0.38888 42.5562 24.9542 -5.40497 -21.3063 0.0 0.0 -0.0 0.0 -0.0 42.0651 -3.61468 -9.75956 -10.5343 -0.288366 -1.58869 -2.20432 19.8177 -0.368269 -20.1029 0.0 0.0 0.0 0.0 0.0 
2729.28 697.464 -1300.04 -8.61138 55.5889 1.73033 1.30336 0.359228 2.07745 1.30573 0.226336 2.09608 1.31445 -0.171134 2.10131 1.30833 0.162801 2.10197 -1.27555 20.3087 -1.31664 -0.257685 37.6856 0.80484 -0.0 0.0 -0.0 3.18 13.1485 6.80112 14.3362 -20.9424 47.31 4.08251 -63.6702 2.53539 -9.53353 -0.431766 1.1384 -1.79848 6.53932 -9.03942 -0.0 0.0 -0.0 13.0164 25.2888 -25.7969 -19.041 -3.15956 -60.7898 0.229261 6.47944 -0.0129771 14.0338 -0.279366 1.76646 -1.83287 3.7444 14.0591 0.0 0.0 0.0 -13.3701 4.49471 24.125 1.96461 -0.0858727 -0.289221 42.9989 24.9883 -5.44604 -21.1062 0.0 0.0 -0.0 0.0 -0.0 41.4837 -3.75018 -9.60957 -11.8823 -0.30404 -1.79492 -5.23868 18.1542 -0.868038 -20.7128 0.0 0.0 0.0 0.0 0.0 
2709.23 695.244 -1302.93 -8.23382 55.4779 1.29145 1.29388 0.394285 2.04446 1.29617 0.26342 2.0654 1.30612 -0.129224 2.07811 1.30015 0.200524 2.07244 -0.853153 19.9255 -1.92692 0.239077 37.3779 -0.0354306 -0.0 0.0 -0.0 2.83561 14.2236 6.27896 13.303 -20.8313 48.6521 3.84864 -62.305 2.32701 -9.02831 -0.404165 1.07997 -1.73366 6.90045 -8.44156 -0.0 0.0 -0.0 13.1785 25.184 -26.1842 -18.8681 -2.92551 -60.9116 0.239981 6.77965 -0.0142148 14.2285 -0.280179 1.79131 -1.86459 3.37153 14.1089 0.0 0.0 0.0 -13.7991 4.30127 24.4401 1.13685 -0.0484807 -0.167714 41.9694 25.0465 -5.35461 -21.0009 0.0 0.0 -0.0 0.0 -0.0 41.0421 -4.0774 -9.79769 -13.4301 -0.316047 -2.0321 -7.47677 14.5698 -1.20843 -21.7453 0.0 0.0 0.0 0.0 0.0 
2675.88 697.746 -1307.47 -7.04998 55.8118 -0.0751239 1.3123 0.368666 1.98611 1.31446 0.241563 2.00554 1.32333 -0.138851 2.01525 1.31771 0.181097 2.01189 -0.0390145 19.0327 -3.01767 1.17144 36.4639 -1.57027 -0.0 0.0 -0.0 2.51765 16.4893 5.87485 10.4299 -21.2909 50.8361 3.75923 -61.7479 2.24805 -8.78423 -0.391016 1.05165 -1.62113 6.39772 -7.9354 -0.0 0.0 -0.0 13.3144 24.8088 -26.5417 -18.469 -3.09049 -60.8996 0.186504 5.27862 -0.00859732 14.2248 -0.280164 1.79084 -1.97485 2.7434 14.5856 0.0 0.0 0.0 -14.5929 3.93849 24.7921 -2.75412 0.103559 0.409941 41.9981 25.0167 -5.35621 -20.4662 0.0 0.0 -0.0 0.0 -0.0 38.0578 -3.23775 -7.9725 -14.0129 -0.318907 -2.12147 -8.59602 15.7778 -1.405 -21.486 0.0 0.0 0.0 0.0 0.0 
2650.04 701.165 -1309.88 -6.09367 56.4554 -1.16117 1.29654 0.303428 1.98666 1.29871 0.176423 2.00193 1.30526 -0.20283 1.99943 1.2997 0.115423 2.00637 0.465143 18.8055 -3.82382 1.81037 36.6025 -2.65522 -0.0 0.0 -0.0 2.17035 17.8456 5.40613 7.50281 -21.1885 52.3062 3.58541 -60.6039 2.09576 -8.56275 -0.379189 1.02591 -1.50143 6.13275 -7.26931 -0.0 0.0 -0.0 13.4098 24.7473 -26.7706 -17.649 -2.96748 -60.9487 0.20195 5.71301 -0.0100766 14.2605 -0.280304 1.79539 -1.9591 2.66544 14.4403 0.0 0.0 0.0 -15.7513 3.49582 24.9358 -6.19287 0.204991 0.927855 42.1869 24.9708 -5.37194 -19.9522 0.0 0.0 -0.0 0.0 -0.0 36.1612 -2.77694 -6.90871 -14.5967 -0.32086 -2.21102 -9.28607 15.7862 -1.51956 -21.649 0.0 0.0 0.0 0.0 0.0 
2622.38 706.23 -1315.31 -5.10857 56.3571 -1.98281 1.28075 0.318643 1.93149 1.2828 0.195115 1.94785 1.28982 -0.174819 1.94977 1.28454 0.135245 1.95291 1.10938 17.9258 -4.94489 2.56103 35.8183 -4.17348 -0.0 0.0 -0.0 1.88262 19.12 5.04421 4.58228 -21.4762 54.2547 3.21165 -57.8357 1.77455 -8.40283 -0.370712 1.0073 -1.37065 6.1004 -6.42328 -0.0 0.0 -0.0 13.5373 24.6401 -27.0797 -16.6601 -2.54251 -61.0247 0.217925 6.16159 -0.0117291 14.3746 -0.280733 1.80997 -2.09888 2.10011 15.1491 0.0 0.0 0.0 -15.6149 3.42334 24.6601 -9.87203 0.278889 1.48751 39.0105 25.3189 -5.08206 -20.2948 0.0 0.0 -0.0 0.0 -0.0 34.4133 -2.48333 -6.52993 -15.0785 -0.321785 -2.28492 -7.91234 19.9554 -1.33971 -20.7947 0.0 0.0 0.0 0.0 0.0 
2597.69 708.718 -1322.2 -3.96142 55.8228 -3.15934 1.15181 0.37249 1.91353 1.15381 0.249996 1.93335 1.16273 -0.122475 1.94559 1.1575 0.186272 1.94052 0.433399 17.8315 -3.98933 1.65825 34.999 -2.87001 -0.0 0.0 -0.0 1.48137 19.5749 4.47671 1.99693 -21.6388 55.1048 3.00756 -56.1188 1.60341 -6.38469 -0.268228 0.77043 -1.22757 6.03182 -5.51403 -0.0 0.0 -0.0 13.4812 24.517 -26.9622 -16.194 -1.76354 -61.0037 0.273662 7.72037 -0.0184654 14.6826 -0.281745 1.84929 -1.96997 1.40134 13.93 0.0 0.0 0.0 -15.0476 3.24681 23.7932 -12.3852 0.308644 1.87195 38.933 23.6255 -5.02243 -21.124 0.0 0.0 -0.0 0.0 -0.0 31.3409 -1.7585 -5.62461 -14.431 -0.320399 -2.1856 -6.1999 24.7505 -1.1004 -19.3723 0.0 0.0 0.0 0.0 0.0 
2573.33 711.466 -1328.77 -2.60232 56.2539 -4.18196 1.15292 0.303826 1.84449 1.15479 0.185861 1.86008 1.16124 -0.171574 1.86145 1.15643 0.124509 1.86519 1.71788 17.7481 -4.78824 3.20758 35.2702 -4.19518 -0.0 0.0 -0.0 0.970634 20.1435 3.76856 -1.18027 -21.267 56.4682 2.77517 -53.9575 1.41293 -5.87277 -0.243567 0.709793 -1.07734 6.3424 -4.38979 -0.0 0.0 -0.0 13.4292 24.803 -26.8095 -15.3606 -1.12681 -61.7557 0.297691 8.38899 -0.0218324 14.8396 -0.28218 1.86934 -2.02749 0.259703 13.7936 0.0 0.0 0.0 -14.1498 2.516 22.9275 -16.7313 0.320234 2.5385 39.9371 23.8113 -5.12458 -21.1134 0.0 0.0 -0.0 0.0 -0.0 28.3811 -0.811217 -4.64704 -14.6953 -0.3211 -2.22615 -3.60095 23.7235 -0.628183 -17.7116 0.0 0.0 0.0 0.0 0.0 
